# Blender v2.82 (sub 7) OBJ File: ''
# www.blender.org
mtllib cone23blender.mtl
o Cone
v 0.664991 -0.323153 -0.632279
v 0.860546 -0.323615 -0.618582
v 1.049672 -0.323533 -0.567001
v 1.225102 -0.322911 -0.479518
v 1.380095 -0.321772 -0.359494
v 1.508693 -0.320159 -0.211544
v 1.605954 -0.318136 -0.041351
v 1.668143 -0.315779 0.144542
v 1.692867 -0.313180 0.338994
v 1.679177 -0.310437 0.534530
v 1.627600 -0.307658 0.723637
v 1.540117 -0.304947 0.899048
v 1.420090 -0.302410 1.054021
v 1.272132 -0.300144 1.182601
v 1.101929 -0.298237 1.279846
v 0.916021 -0.296760 1.342020
v 0.721553 -0.295772 1.366733
v 0.525999 -0.295310 1.353036
v 0.336872 -0.295391 1.301454
v 0.161442 -0.296014 1.213971
v 0.006450 -0.297153 1.093948
v -0.122148 -0.298765 0.945997
v -0.219410 -0.300789 0.775804
v 0.699930 1.690336 0.339647
v -0.281598 -0.303146 0.589910
v -0.306322 -0.305745 0.395459
v -0.292632 -0.308487 0.199922
v -0.241055 -0.311267 0.010815
v -0.153572 -0.313978 -0.164595
v -0.033545 -0.316514 -0.319568
v 0.114414 -0.318780 -0.448148
v 0.284617 -0.320688 -0.545393
v 0.470525 -0.322165 -0.607567
vt 0.250000 0.490000
vt 0.250000 0.250000
vt 0.296822 0.485388
vt 0.341844 0.471731
vt 0.383337 0.449553
vt 0.419706 0.419706
vt 0.449553 0.383337
vt 0.471731 0.341844
vt 0.485388 0.296822
vt 0.490000 0.250000
vt 0.485388 0.203178
vt 0.471731 0.158156
vt 0.449553 0.116663
vt 0.419706 0.080294
vt 0.383337 0.050447
vt 0.341844 0.028269
vt 0.296822 0.014612
vt 0.250000 0.010000
vt 0.203178 0.014612
vt 0.158156 0.028269
vt 0.116663 0.050447
vt 0.080294 0.080294
vt 0.050447 0.116663
vt 0.028269 0.158156
vt 0.014611 0.203179
vt 0.010000 0.250000
vt 0.014612 0.296822
vt 0.028269 0.341844
vt 0.050447 0.383337
vt 0.080295 0.419706
vt 0.116663 0.449553
vt 0.158156 0.471731
vt 0.203179 0.485389
vt 0.750000 0.490000
vt 0.796822 0.485388
vt 0.841844 0.471731
vt 0.883337 0.449553
vt 0.919706 0.419706
vt 0.949553 0.383337
vt 0.971731 0.341844
vt 0.985388 0.296822
vt 0.990000 0.250000
vt 0.985388 0.203178
vt 0.971731 0.158156
vt 0.949553 0.116663
vt 0.919706 0.080294
vt 0.883337 0.050447
vt 0.841844 0.028269
vt 0.796822 0.014612
vt 0.750000 0.010000
vt 0.703178 0.014612
vt 0.658156 0.028269
vt 0.616663 0.050447
vt 0.580294 0.080294
vt 0.550447 0.116663
vt 0.528269 0.158156
vt 0.514611 0.203179
vt 0.510000 0.250000
vt 0.514612 0.296822
vt 0.528269 0.341844
vt 0.550447 0.383337
vt 0.580295 0.419706
vt 0.616663 0.449553
vt 0.658156 0.471731
vt 0.703179 0.485389
vn 0.0640 0.4329 -0.8992
vn 0.2370 0.4327 -0.8698
vn 0.4010 0.4331 -0.8072
vn 0.5496 0.4339 -0.7139
vn 0.6772 0.4351 -0.5934
vn 0.7788 0.4367 -0.4503
vn 0.8505 0.4387 -0.2901
vn 0.8896 0.4409 -0.1190
vn 0.8946 0.4433 0.0564
vn 0.8652 0.4458 0.2294
vn 0.8027 0.4483 0.3934
vn 0.7093 0.4506 0.5420
vn 0.5888 0.4528 0.6695
vn 0.4457 0.4547 0.7711
vn 0.2855 0.4562 0.8428
vn 0.1144 0.4573 0.8819
vn -0.0610 0.4580 0.8869
vn -0.2341 0.4581 0.8575
vn -0.3981 0.4578 0.7950
vn -0.5467 0.4570 0.7016
vn -0.6742 0.4558 0.5811
vn -0.7758 0.4542 0.4380
vn -0.8476 0.4522 0.2778
vn -0.8867 0.4500 0.1067
vn -0.8916 0.4476 -0.0687
vn -0.8623 0.4451 -0.2417
vn -0.7997 0.4426 -0.4057
vn -0.7064 0.4402 -0.5543
vn -0.5858 0.4381 -0.6818
vn -0.4427 0.4362 -0.7834
vn -0.2825 0.4347 -0.8551
vn -0.1114 0.4336 -0.8942
vn -0.0033 -0.9999 0.0138
usemtl felt
s off
f 1/1/1 24/2/1 2/3/1
f 2/3/2 24/2/2 3/4/2
f 3/4/3 24/2/3 4/5/3
f 4/5/4 24/2/4 5/6/4
f 5/6/5 24/2/5 6/7/5
f 6/7/6 24/2/6 7/8/6
f 7/8/7 24/2/7 8/9/7
f 8/9/8 24/2/8 9/10/8
f 9/10/9 24/2/9 10/11/9
f 10/11/10 24/2/10 11/12/10
f 11/12/11 24/2/11 12/13/11
f 12/13/12 24/2/12 13/14/12
f 13/14/13 24/2/13 14/15/13
f 14/15/14 24/2/14 15/16/14
f 15/16/15 24/2/15 16/17/15
f 16/17/16 24/2/16 17/18/16
f 17/18/17 24/2/17 18/19/17
f 18/19/18 24/2/18 19/20/18
f 19/20/19 24/2/19 20/21/19
f 20/21/20 24/2/20 21/22/20
f 21/22/21 24/2/21 22/23/21
f 22/23/22 24/2/22 23/24/22
f 23/24/23 24/2/23 25/25/23
f 25/25/24 24/2/24 26/26/24
f 26/26/25 24/2/25 27/27/25
f 27/27/26 24/2/26 28/28/26
f 28/28/27 24/2/27 29/29/27
f 29/29/28 24/2/28 30/30/28
f 30/30/29 24/2/29 31/31/29
f 31/31/30 24/2/30 32/32/30
f 32/32/31 24/2/31 33/33/31
f 33/33/32 24/2/32 1/1/32
f 1/34/33 2/35/33 3/36/33 4/37/33 5/38/33 6/39/33 7/40/33 8/41/33 9/42/33 10/43/33 11/44/33 12/45/33 13/46/33 14/47/33 15/48/33 16/49/33 17/50/33 18/51/33 19/52/33 20/53/33 21/54/33 22/55/33 23/56/33 25/57/33 26/58/33 27/59/33 28/60/33 29/61/33 30/62/33 31/63/33 32/64/33 33/65/33
o Plane
v -0.328092 -0.971052 -5.871657
v -6.945956 -0.156682 3.704632
v 10.517412 -1.705870 -4.911847
v 2.643599 -1.082115 8.408160
vt 0.000000 0.000000
vt 1.000000 0.000000
vt 1.000000 1.000000
vt 0.000000 1.000000
vn 0.0836 0.9964 -0.0097
usemtl None
s off
f 34/66/34 35/67/34 37/68/34 36/69/34
